<svg width="82" height="82" viewBox="0 0 82 82" fill="none" xmlns="http://www.w3.org/2000/svg">
<path fill-rule="evenodd" clip-rule="evenodd" d="M40.9972 10.25C24.0171 10.25 10.25 24.0171 10.25 41.0009C10.25 54.5869 19.06 66.1114 31.2792 70.1794C32.8177 70.4607 33.3783 69.5112 33.3783 68.6957C33.3783 67.967 33.3519 66.0321 33.3368 63.4667C24.7835 65.3242 22.9789 59.3439 22.9789 59.3439C21.5801 55.7931 19.564 54.8474 19.564 54.8474C16.7721 52.9389 19.7754 52.9766 19.7754 52.9766C22.8619 53.1956 24.4853 56.1461 24.4853 56.1461C27.2281 60.8446 31.6832 59.4874 33.435 58.7021C33.7143 56.7143 34.5072 55.3589 35.3869 54.5906C28.559 53.8148 21.38 51.1757 21.38 39.3926C21.38 36.0362 22.5787 33.2915 24.5457 31.1414C24.2286 30.3636 23.1733 27.2376 24.8458 23.0034C24.8458 23.0034 27.4282 22.1766 33.3028 26.1559C35.755 25.4745 38.3865 25.1328 41.0009 25.1215C43.6117 25.1328 46.2431 25.4745 48.6991 26.1559C54.5699 22.1766 57.1466 23.0034 57.1466 23.0034C58.8248 27.2376 57.7696 30.3636 57.4524 31.1414C59.4232 33.2915 60.6143 36.0362 60.6143 39.3926C60.6143 51.2059 53.424 53.8053 46.5735 54.5661C47.6778 55.5156 48.6613 57.392 48.6613 60.2613C48.6613 64.3709 48.6235 67.6876 48.6235 68.6957C48.6235 69.5187 49.1767 70.4758 50.7378 70.1756C62.9476 66.1 71.75 54.5831 71.75 41.0009C71.75 24.0171 57.981 10.25 40.9972 10.25Z" fill="#1E212D"/>
</svg>
