<svg width="65" height="65" viewBox="0 0 65 65" fill="none" xmlns="http://www.w3.org/2000/svg">
<path d="M32.5009 8.86365C26.0818 8.86365 25.2763 8.89172 22.7551 9.00645C20.2389 9.12168 18.5214 9.52005 17.0186 10.1046C15.464 10.7083 14.1454 11.5158 12.8316 12.8301C11.5169 14.1439 10.7093 15.4626 10.1037 17.0167C9.51769 18.5201 9.11884 20.2382 9.00559 22.7535C8.89283 25.2747 8.86328 26.0808 8.86328 32.5C8.86328 38.9193 8.89184 39.7224 9.00608 42.2436C9.1218 44.7599 9.52016 46.4775 10.1042 47.9803C10.7083 49.5349 11.5159 50.8536 12.8301 52.1674C14.1434 53.4822 15.4621 54.2918 17.0156 54.8955C18.5194 55.48 20.2374 55.8783 22.7532 55.9936C25.2743 56.1083 26.0794 56.1364 32.4979 56.1364C38.9175 56.1364 39.7206 56.1083 42.2417 55.9936C44.758 55.8783 46.4774 55.48 47.9813 54.8955C49.5353 54.2918 50.852 53.4822 52.1653 52.1674C53.48 50.8536 54.2875 49.5349 54.8932 47.9808C55.4743 46.4775 55.8731 44.7594 55.9913 42.2441C56.1045 39.7229 56.1341 38.9193 56.1341 32.5C56.1341 26.0808 56.1045 25.2752 55.9913 22.7539C55.8731 20.2377 55.4743 18.5201 54.8932 17.0172C54.2875 15.4626 53.48 14.1439 52.1653 12.8301C50.8505 11.5154 49.5358 10.7078 47.9798 10.1046C46.473 9.52005 44.7545 9.12168 42.2383 9.00645C39.7172 8.89172 38.9145 8.86365 32.4935 8.86365H32.5009ZM30.3806 13.1231C31.0099 13.1221 31.7121 13.1231 32.5009 13.1231C38.8116 13.1231 39.5596 13.1458 42.0517 13.259C44.3561 13.3644 45.6069 13.7495 46.44 14.073C47.543 14.5014 48.3294 15.0135 49.1562 15.8408C49.9834 16.6681 50.4955 17.456 50.9249 18.559C51.2484 19.3912 51.634 20.6419 51.7388 22.9465C51.8521 25.4382 51.8767 26.1866 51.8767 32.4946C51.8767 38.8025 51.8521 39.551 51.7388 42.0427C51.6335 44.3472 51.2484 45.598 50.9249 46.4302C50.4965 47.5332 49.9834 48.3186 49.1562 49.1454C48.3289 49.9727 47.5435 50.4848 46.44 50.9132C45.6078 51.2382 44.3561 51.6223 42.0517 51.7277C39.5601 51.841 38.8116 51.8656 32.5009 51.8656C26.1897 51.8656 25.4417 51.841 22.9501 51.7277C20.6457 51.6213 19.3949 51.2363 18.5613 50.9127C17.4583 50.4843 16.6704 49.9722 15.8432 49.1449C15.0159 48.3177 14.5038 47.5318 14.0744 46.4282C13.7509 45.596 13.3654 44.3453 13.2605 42.0407C13.1472 39.5491 13.1246 38.8006 13.1246 32.4887C13.1246 26.1768 13.1472 25.4322 13.2605 22.9406C13.3659 20.636 13.7509 19.3853 14.0744 18.5521C14.5028 17.4491 15.0159 16.6612 15.8432 15.8339C16.6704 15.0066 17.4583 14.4945 18.5613 14.0651C19.3944 13.7401 20.6457 13.356 22.9501 13.2502C25.1305 13.1517 25.9755 13.1221 30.3806 13.1172V13.1231ZM45.1174 17.0477C43.5515 17.0477 42.2811 18.3167 42.2811 19.8831C42.2811 21.449 43.5515 22.7195 45.1174 22.7195C46.6833 22.7195 47.9537 21.449 47.9537 19.8831C47.9537 18.3172 46.6833 17.0468 45.1174 17.0468V17.0477ZM32.5009 20.3618C25.7977 20.3618 20.363 25.7966 20.363 32.5C20.363 39.2034 25.7977 44.6358 32.5009 44.6358C39.2041 44.6358 44.6368 39.2034 44.6368 32.5C44.6368 25.7966 39.2036 20.3618 32.5004 20.3618H32.5009ZM32.5009 24.6212C36.8518 24.6212 40.3794 28.1485 40.3794 32.5C40.3794 36.8511 36.8518 40.3788 32.5009 40.3788C28.1495 40.3788 24.6223 36.8511 24.6223 32.5C24.6223 28.1485 28.1495 24.6212 32.5009 24.6212V24.6212Z" fill="#1E212D"/>
</svg>
