<svg width="41" height="41" viewBox="0 0 41 41" fill="none" xmlns="http://www.w3.org/2000/svg">
<path fill-rule="evenodd" clip-rule="evenodd" d="M0.961677 4.60418C0 6.45548 0 8.88768 0 13.7521V27.2479C0 32.1123 0 34.5445 0.961677 36.3958C1.77207 37.9559 3.0441 39.2279 4.60418 40.0383C6.45548 41 8.88768 41 13.7521 41H27.2479C32.1123 41 34.5445 41 36.3958 40.0383C37.9559 39.2279 39.2279 37.9559 40.0383 36.3958C41 34.5445 41 32.1123 41 27.2479V13.7521C41 8.88768 41 6.45548 40.0383 4.60418C39.2279 3.0441 37.9559 1.77207 36.3958 0.961677C34.5445 0 32.1123 0 27.2479 0H13.7521C8.88768 0 6.45548 0 4.60418 0.961677C3.0441 1.77207 1.77207 3.0441 0.961677 4.60418ZM9.20263 12.7327C11.167 12.7327 12.7594 11.1403 12.7594 9.17597C12.7594 7.21164 11.167 5.61923 9.20263 5.61923C7.23829 5.61923 5.64589 7.21164 5.64589 9.17597C5.64589 11.1403 7.23829 12.7327 9.20263 12.7327ZM16.0167 15.3613H21.9114V18.0616C21.9114 18.0616 23.511 14.8624 27.8633 14.8624C31.7457 14.8624 34.9619 16.775 34.9619 22.6047V34.8978H28.8533V24.0943C28.8533 20.6553 27.0173 20.2771 25.6183 20.2771C22.7148 20.2771 22.2177 22.7815 22.2177 24.5429V34.8978H16.0167V15.3613ZM12.3031 15.3613H6.10213V34.8978H12.3031V15.3613Z" fill="#1E212D"/>
</svg>
