<svg width="62" height="62" viewBox="0 0 62 62" fill="none" xmlns="http://www.w3.org/2000/svg">
<g filter="url(#filter0_d_124_86)">
<path fill-rule="evenodd" clip-rule="evenodd" d="M51.0769 20.8961C51.0944 21.3479 51.1003 21.7995 51.1003 22.2513C51.1003 35.9486 41.4648 51.7614 23.845 51.7614C18.4325 51.7614 13.3996 50.0363 9.15918 47.0997C9.90875 47.1819 10.67 47.2436 11.443 47.2436C15.9307 47.2436 20.064 45.5799 23.3427 42.787C19.1509 42.7254 15.6114 39.7067 14.3906 35.5995C14.9767 35.7227 15.5802 35.7845 16.1974 35.7845C17.0677 35.7845 17.9126 35.6614 18.7225 35.415C14.3361 34.4704 11.0322 30.2812 11.0322 25.2499C11.0322 25.1883 11.0322 25.1676 11.0322 25.1266C12.3249 25.8864 13.8046 26.3585 15.3758 26.4201C12.8019 24.5513 11.11 21.3684 11.11 17.7746C11.11 15.8853 11.5811 14.0986 12.4105 12.5584C17.1338 18.8424 24.1955 22.9701 32.1565 23.4014C31.993 22.6416 31.9092 21.8409 31.9092 21.04C31.9092 15.3105 36.1983 10.6693 41.4901 10.6693C44.245 10.6693 46.7332 11.9222 48.4796 13.9347C50.6661 13.4829 52.7143 12.6204 54.5678 11.4294C53.8493 13.8526 52.3326 15.8852 50.3507 17.1584C52.2898 16.912 54.1395 16.358 55.8547 15.5365C54.5678 17.6106 52.9479 19.438 51.0769 20.8961Z" fill="#1E212D"/>
</g>
<defs>
<filter id="filter0_d_124_86" x="-4" y="0" width="70" height="70" filterUnits="userSpaceOnUse" color-interpolation-filters="sRGB">
<feFlood flood-opacity="0" result="BackgroundImageFix"/>
<feColorMatrix in="SourceAlpha" type="matrix" values="0 0 0 0 0 0 0 0 0 0 0 0 0 0 0 0 0 0 127 0" result="hardAlpha"/>
<feOffset dy="4"/>
<feGaussianBlur stdDeviation="2"/>
<feComposite in2="hardAlpha" operator="out"/>
<feColorMatrix type="matrix" values="0 0 0 0 0 0 0 0 0 0 0 0 0 0 0 0 0 0 0.25 0"/>
<feBlend mode="normal" in2="BackgroundImageFix" result="effect1_dropShadow_124_86"/>
<feBlend mode="normal" in="SourceGraphic" in2="effect1_dropShadow_124_86" result="shape"/>
</filter>
</defs>
</svg>
